<?xml version="1.0" standalone="no"?>
<!DOCTYPE svg PUBLIC "-//W3C//DTD SVG 20010904//EN"
 "http://www.w3.org/TR/2001/REC-SVG-20010904/DTD/svg10.dtd">
<svg version="1.0" xmlns="http://www.w3.org/2000/svg"
 width="933.000000pt" height="1280.000000pt" viewBox="0 0 933.000000 1280.000000"
 preserveAspectRatio="xMidYMid meet">

<g transform="translate(0.000000,1280.000000) scale(0.100000,-0.100000)"
fill="#000000" stroke="none">
<path d="M5470 12789 c-241 -12 -465 -37 -629 -70 -162 -33 -236 -36 -366 -14
-207 34 -329 21 -867 -95 -489 -104 -983 -277 -1430 -501 -335 -168 -521 -290
-783 -515 -231 -198 -306 -315 -473 -729 -87 -217 -132 -357 -152 -475 -21
-117 -16 -315 10 -478 l23 -142 -37 -99 c-50 -132 -60 -219 -47 -396 16 -200
70 -564 127 -845 110 -541 347 -1326 599 -1985 245 -641 300 -851 345 -1334
11 -118 20 -222 20 -230 1 -23 63 78 187 304 61 110 150 270 198 355 47 85
111 205 140 265 79 162 284 647 380 900 102 269 125 325 136 325 4 0 34 -30
66 -67 206 -240 548 -528 819 -690 135 -80 205 -103 312 -103 144 0 246 36
355 125 56 45 57 47 57 97 l0 50 -41 -37 c-92 -83 -250 -128 -380 -108 -141
22 -320 137 -468 301 -288 318 -440 550 -519 788 -144 434 -58 960 198 1212
158 156 375 186 585 83 131 -65 233 -159 343 -318 72 -104 109 -149 116 -143
2 3 -1 37 -9 75 -7 39 -11 72 -9 74 15 16 379 -118 508 -187 90 -48 111 -76
111 -150 -1 -55 -19 -372 -50 -877 -34 -531 -65 -835 -99 -960 -8 -27 -21 -96
-30 -152 -43 -281 -285 -1275 -350 -1443 -22 -56 -39 -210 -34 -312 3 -86 8
-102 45 -179 52 -108 191 -307 268 -384 33 -33 112 -105 175 -160 63 -55 171
-154 240 -220 173 -165 310 -289 403 -364 43 -35 76 -69 74 -75 -3 -7 -48
-156 -100 -332 -69 -230 -97 -341 -102 -399 -4 -44 -20 -159 -35 -255 -61
-370 -73 -522 -48 -632 l11 -53 14 32 c7 18 27 113 44 210 48 273 100 464 185
678 131 327 269 585 312 585 24 0 187 -80 395 -194 340 -185 541 -281 822
-391 410 -161 661 -219 950 -218 183 0 299 18 455 69 175 57 492 237 541 306
32 45 28 104 -14 214 -68 175 -124 405 -164 664 -19 129 -21 297 -8 895 5 238
3 407 -4 499 l-11 139 -60 123 c-33 67 -60 129 -60 137 0 32 91 76 189 92 25
4 54 17 68 31 41 41 29 178 -42 464 -35 144 -59 196 -135 302 -39 53 -70 101
-70 106 0 16 79 32 227 46 158 16 198 30 244 85 38 46 176 318 184 364 9 44
-10 88 -102 239 -108 175 -487 827 -521 894 -68 136 -110 304 -97 386 13 75
32 106 134 213 55 57 103 116 107 131 4 16 1 46 -6 68 -14 44 -15 101 -5 212
8 84 1 112 -165 674 -118 397 -181 625 -224 805 -15 61 -45 165 -67 232 -47
142 -55 105 76 328 158 268 206 368 282 590 57 168 86 293 87 380 1 74 -2 85
-34 144 -132 245 -655 562 -1250 758 -449 148 -948 236 -1495 263 -223 11
-334 11 -575 -1z m-609 -289 c150 -33 383 -115 524 -185 186 -91 443 -270 344
-240 -13 4 -163 67 -334 140 -170 73 -380 158 -465 188 -165 58 -357 117 -385
117 -9 0 -14 3 -11 8 8 13 227 -6 327 -28z m1775 15 c104 -28 249 -82 409
-150 394 -169 540 -300 552 -498 l5 -72 -49 83 c-26 46 -67 103 -89 127 -40
41 -124 94 -124 78 0 -5 15 -51 34 -103 58 -164 70 -236 62 -385 -12 -224 -19
-233 -39 -50 -32 292 -68 402 -171 527 -107 129 -245 226 -518 364 -231 116
-239 125 -72 79z m-880 -1 c163 -33 424 -145 580 -249 143 -95 301 -283 381
-451 31 -65 37 -91 41 -161 3 -52 1 -83 -6 -83 -5 0 -13 12 -17 27 -12 51 -73
172 -128 255 -105 161 -231 284 -407 400 -127 84 -394 219 -498 252 -90 29
-62 34 54 10z m2574 -808 c11 -19 26 -60 33 -91 14 -70 -5 -172 -56 -298 -36
-89 -126 -261 -133 -255 -2 2 19 75 46 162 83 263 93 357 49 485 -11 30 -19
58 -19 63 0 17 58 -32 80 -66z m-1645 -865 c351 -55 765 -159 1042 -262 139
-51 412 -192 466 -240 25 -21 52 -54 61 -73 9 -19 37 -124 62 -233 53 -226
107 -421 236 -848 141 -467 149 -495 155 -572 8 -94 -10 -146 -93 -277 -92
-147 -108 -195 -108 -336 0 -73 7 -146 18 -200 26 -121 91 -311 141 -410 83
-165 336 -599 466 -797 27 -41 51 -90 55 -109 13 -68 -51 -179 -143 -249 -60
-46 -84 -45 -124 5 -18 22 -56 52 -85 66 -90 44 -179 53 -521 54 -173 0 -323
4 -337 10 -45 17 -61 55 -60 142 1 43 5 90 8 105 6 27 5 26 -33 -13 -59 -62
-78 -155 -46 -232 9 -21 61 -82 117 -139 l101 -101 -36 -15 c-19 -9 -87 -27
-151 -41 -153 -33 -204 -57 -265 -121 -65 -69 -113 -144 -182 -290 -74 -157
-134 -310 -203 -525 -32 -96 -59 -176 -60 -178 -6 -5 -43 64 -64 120 -26 70
-39 142 -52 293 -13 149 -35 267 -60 316 -13 24 -195 202 -502 490 -784 735
-760 710 -800 779 -64 109 -73 171 -72 510 0 392 27 626 120 1057 46 216 77
312 117 365 38 49 159 132 452 310 334 202 388 240 430 304 21 31 63 113 94
182 55 125 56 128 56 222 0 86 -3 101 -31 160 -33 69 -271 408 -387 550 -50
62 -97 105 -170 158 -56 40 -104 77 -106 84 -6 18 342 3 494 -21z"/>
<path d="M7490 8792 c-125 -58 -373 -190 -525 -281 -98 -58 -107 -66 -85 -72
31 -8 54 -4 150 27 135 43 257 57 485 57 319 0 425 -28 602 -162 44 -33 92
-65 107 -71 67 -25 147 -2 242 70 77 58 98 100 95 183 l-1 27 -37 -20 c-21
-11 -48 -20 -60 -20 -22 0 -26 7 -38 68 -4 18 -17 40 -30 48 -52 34 -621 182
-730 190 -67 5 -74 3 -175 -44z"/>
<path d="M7647 8290 c-175 -32 -399 -115 -396 -148 1 -19 196 -150 302 -204
45 -22 123 -56 172 -74 84 -31 102 -43 132 -90 10 -17 13 -17 23 -4 19 28 23
63 10 94 -25 60 -23 88 9 138 30 47 58 71 170 141 58 36 99 87 86 107 -3 5
-31 19 -63 31 -83 32 -295 36 -445 9z m48 -182 c-3 -46 -8 -98 -11 -116 -5
-32 -7 -33 -37 -26 -39 8 -109 42 -183 90 -53 34 -55 36 -38 55 29 32 162 73
252 78 23 1 23 0 17 -81z"/>
<path d="M3473 8522 c-94 -34 -152 -93 -218 -222 -60 -118 -77 -191 -81 -340
-4 -145 -1 -143 35 15 28 122 86 238 158 312 73 76 125 103 196 103 89 0 153
-52 225 -180 42 -76 64 -147 56 -182 -3 -17 -45 -73 -98 -132 -189 -209 -230
-284 -227 -411 2 -109 117 -272 280 -396 157 -119 387 -204 480 -179 64 17 81
40 81 108 0 82 -22 118 -105 175 -83 56 -125 99 -125 129 0 12 -5 51 -11 86
-10 54 -18 73 -52 109 l-40 43 13 171 c29 375 -10 512 -194 687 -54 51 -89 76
-132 92 -83 31 -176 35 -241 12z"/>
<path d="M3430 7093 c0 -13 40 -75 77 -121 82 -101 268 -224 406 -267 113 -36
194 -32 149 8 -9 8 -105 65 -212 127 -107 62 -235 140 -285 175 -101 70 -135
89 -135 78z"/>
<path d="M1407 4419 c-85 -9 -131 -37 -179 -111 -33 -49 -169 -318 -310 -614
-50 -105 -97 -184 -191 -318 -15 -21 -27 -42 -27 -45 0 -4 66 -12 148 -19 314
-25 592 -96 817 -209 39 -19 105 -53 148 -74 182 -91 344 -205 697 -488 320
-256 378 -307 894 -775 191 -173 394 -363 561 -526 289 -281 571 -526 880
-766 258 -201 588 -410 732 -465 l24 -9 -23 41 c-27 49 -98 135 -264 321 -225
251 -438 550 -615 865 -61 109 -148 259 -192 333 -106 175 -442 676 -480 715
-16 16 -47 55 -68 86 -179 265 -515 622 -894 953 -361 316 -895 678 -1270 861
-185 91 -220 122 -220 198 l0 52 -50 1 c-27 0 -81 -3 -118 -7z"/>
<path d="M650 2923 c-328 -121 -655 -272 -633 -294 5 -5 168 -35 363 -68 414
-70 573 -102 690 -141 111 -37 598 -257 804 -363 352 -182 854 -508 1316 -854
395 -295 710 -513 742 -513 17 0 -89 117 -313 346 -119 122 -233 244 -255 270
-21 27 -48 55 -59 63 -11 8 -72 65 -135 126 -128 125 -552 482 -761 640 -291
221 -520 358 -862 515 -116 53 -243 113 -282 132 -113 57 -248 107 -342 128
-83 18 -238 26 -273 13z"/>
</g>
</svg>
